<svg width="1920" height="1080" viewBox="0 0 1920 1080" fill="none" xmlns="http://www.w3.org/2000/svg">
  <defs>
    <radialGradient id="greenGlow" cx="50%" cy="50%" r="50%">
      <stop offset="0%" style="stop-color:#00ff88;stop-opacity:0.8" />
      <stop offset="100%" style="stop-color:#00ff88;stop-opacity:0" />
    </radialGradient>
  </defs>

  <!-- Wave patterns with dots -->
  <g opacity="0.4">
    <!-- Bottom wave -->
    <path d="M0,700 Q480,650 960,700 T1920,700 L1920,1080 L0,1080 Z" fill="url(#greenGlow)" opacity="0.3"/>

    <!-- Dots pattern on bottom wave -->
    <g id="bottomDots">
      <circle cx="100" cy="720" r="2" fill="#00ff88" opacity="0.3"/>
      <circle cx="150" cy="715" r="2" fill="#00ff88" opacity="0.4"/>
      <circle cx="200" cy="710" r="2" fill="#00ff88" opacity="0.5"/>
      <circle cx="250" cy="708" r="2" fill="#00ff88" opacity="0.6"/>
      <circle cx="300" cy="705" r="2" fill="#00ff88" opacity="0.7"/>
      <circle cx="350" cy="703" r="2" fill="#00ff88" opacity="0.8"/>
      <circle cx="400" cy="702" r="2" fill="#00ff88" opacity="0.9"/>
      <circle cx="450" cy="700" r="2" fill="#00ff88" opacity="1"/>
      <circle cx="500" cy="702" r="2" fill="#00ff88" opacity="0.9"/>
      <circle cx="550" cy="705" r="2" fill="#00ff88" opacity="0.8"/>
      <circle cx="600" cy="708" r="2" fill="#00ff88" opacity="0.7"/>
      <circle cx="650" cy="710" r="2" fill="#00ff88" opacity="0.6"/>
      <circle cx="700" cy="715" r="2" fill="#00ff88" opacity="0.5"/>
      <circle cx="750" cy="718" r="2" fill="#00ff88" opacity="0.4"/>
      <circle cx="800" cy="720" r="2" fill="#00ff88" opacity="0.3"/>
      <circle cx="850" cy="718" r="2" fill="#00ff88" opacity="0.4"/>
      <circle cx="900" cy="715" r="2" fill="#00ff88" opacity="0.5"/>
      <circle cx="950" cy="710" r="2" fill="#00ff88" opacity="0.6"/>
      <circle cx="1000" cy="708" r="2" fill="#00ff88" opacity="0.7"/>
      <circle cx="1050" cy="705" r="2" fill="#00ff88" opacity="0.8"/>
      <circle cx="1100" cy="703" r="2" fill="#00ff88" opacity="0.9"/>
      <circle cx="1150" cy="702" r="2" fill="#00ff88" opacity="1"/>
      <circle cx="1200" cy="702" r="2" fill="#00ff88" opacity="0.9"/>
      <circle cx="1250" cy="705" r="2" fill="#00ff88" opacity="0.8"/>
      <circle cx="1300" cy="708" r="2" fill="#00ff88" opacity="0.7"/>
      <circle cx="1350" cy="710" r="2" fill="#00ff88" opacity="0.6"/>
      <circle cx="1400" cy="715" r="2" fill="#00ff88" opacity="0.5"/>
      <circle cx="1450" cy="718" r="2" fill="#00ff88" opacity="0.4"/>
      <circle cx="1500" cy="720" r="2" fill="#00ff88" opacity="0.3"/>
      <circle cx="1550" cy="718" r="2" fill="#00ff88" opacity="0.4"/>
      <circle cx="1600" cy="715" r="2" fill="#00ff88" opacity="0.5"/>
      <circle cx="1650" cy="710" r="2" fill="#00ff88" opacity="0.6"/>
      <circle cx="1700" cy="708" r="2" fill="#00ff88" opacity="0.7"/>
      <circle cx="1750" cy="705" r="2" fill="#00ff88" opacity="0.8"/>
      <circle cx="1800" cy="703" r="2" fill="#00ff88" opacity="0.9"/>
      <circle cx="1850" cy="702" r="2" fill="#00ff88" opacity="1"/>
      <circle cx="1900" cy="705" r="2" fill="#00ff88" opacity="0.8"/>
    </g>

    <!-- Top right wave -->
    <path d="M960,100 Q1200,150 1440,100 T1920,100 L1920,400 Q1680,450 1440,400 T960,400 Z" fill="url(#greenGlow)" opacity="0.2"/>

    <!-- Dots pattern on top wave -->
    <g id="topDots">
      <circle cx="1100" cy="120" r="1.5" fill="#00ff88" opacity="0.3"/>
      <circle cx="1150" cy="115" r="1.5" fill="#00ff88" opacity="0.4"/>
      <circle cx="1200" cy="110" r="1.5" fill="#00ff88" opacity="0.5"/>
      <circle cx="1250" cy="108" r="1.5" fill="#00ff88" opacity="0.6"/>
      <circle cx="1300" cy="105" r="1.5" fill="#00ff88" opacity="0.7"/>
      <circle cx="1350" cy="103" r="1.5" fill="#00ff88" opacity="0.8"/>
      <circle cx="1400" cy="102" r="1.5" fill="#00ff88" opacity="0.9"/>
      <circle cx="1450" cy="100" r="1.5" fill="#00ff88" opacity="1"/>
      <circle cx="1500" cy="102" r="1.5" fill="#00ff88" opacity="0.9"/>
      <circle cx="1550" cy="105" r="1.5" fill="#00ff88" opacity="0.8"/>
      <circle cx="1600" cy="108" r="1.5" fill="#00ff88" opacity="0.7"/>
      <circle cx="1650" cy="110" r="1.5" fill="#00ff88" opacity="0.6"/>
      <circle cx="1700" cy="115" r="1.5" fill="#00ff88" opacity="0.5"/>
      <circle cx="1750" cy="118" r="1.5" fill="#00ff88" opacity="0.4"/>
      <circle cx="1800" cy="120" r="1.5" fill="#00ff88" opacity="0.3"/>
    </g>
  </g>

  <!-- Additional glow spots -->
  <circle cx="400" cy="700" r="150" fill="url(#greenGlow)" opacity="0.15"/>
  <circle cx="1400" cy="200" r="200" fill="url(#greenGlow)" opacity="0.1"/>
</svg>
